<?xml version="1.0" encoding="UTF-8" standalone="no"?>
<svg
   xmlns:dc="http://purl.org/dc/elements/1.1/"
   xmlns:cc="http://creativecommons.org/ns#"
   xmlns:rdf="http://www.w3.org/1999/02/22-rdf-syntax-ns#"
   xmlns:svg="http://www.w3.org/2000/svg"
   xmlns="http://www.w3.org/2000/svg"
   xmlns:sodipodi="http://sodipodi.sourceforge.net/DTD/sodipodi-0.dtd"
   xmlns:inkscape="http://www.inkscape.org/namespaces/inkscape"
   width="64pt"
   height="64pt"
   viewBox="0 0 64 64"
   version="1.1"
   id="svg2"
   inkscape:version="0.47pre4 r22446"
   sodipodi:docname="gmail-notifier.svg">
  <metadata
     id="metadata16">
    <rdf:RDF>
      <cc:Work
         rdf:about="">
        <dc:format>image/svg+xml</dc:format>
        <dc:type
           rdf:resource="http://purl.org/dc/dcmitype/StillImage" />
        <dc:title></dc:title>
      </cc:Work>
    </rdf:RDF>
  </metadata>
  <defs
     id="defs14">
    <inkscape:perspective
       sodipodi:type="inkscape:persp3d"
       inkscape:vp_x="0 : 40 : 1"
       inkscape:vp_y="0 : 1000 : 0"
       inkscape:vp_z="80 : 40 : 1"
       inkscape:persp3d-origin="40 : 26.666667 : 1"
       id="perspective18" />
  </defs>
  <sodipodi:namedview
     pagecolor="#ffffff"
     bordercolor="#666666"
     borderopacity="1"
     objecttolerance="10"
     gridtolerance="10"
     guidetolerance="10"
     inkscape:pageopacity="0"
     inkscape:pageshadow="2"
     inkscape:window-width="1176"
     inkscape:window-height="685"
     id="namedview12"
     showgrid="false"
     inkscape:zoom="2.95"
     inkscape:cx="40"
     inkscape:cy="39.322034"
     inkscape:window-x="0"
     inkscape:window-y="25"
     inkscape:window-maximized="0"
     inkscape:current-layer="svg2" />
  <path
     fill="#b64e4c"
     d=" M 7.34 7.97 C 23.77 8.40 40.24 8.30 56.67 7.97 C 57.93 9.34 59.02 10.85 59.96 12.45 C 60.00 27.14 60.08 41.83 59.92 56.51 C 59.62 57.06 59.02 58.17 58.72 58.73 C 58.17 59.03 57.06 59.62 56.51 59.92 C 40.17 60.02 23.83 60.02 7.49 59.92 C 6.94 59.62 5.84 59.02 5.29 58.73 C 4.99 58.17 4.38 57.05 4.08 56.50 C 3.92 41.81 4.00 27.12 4.05 12.44 C 5.00 10.85 6.06 9.32 7.34 7.97 Z"
     id="path6" />
  <path
     fill="#fff9fd"
     d=" M 15.65 8.95 C 26.55 8.76 37.45 8.60 48.34 8.94 C 43.03 14.47 37.72 20.07 32.01 25.18 C 26.28 20.10 20.97 14.48 15.65 8.95 Z"
     id="path8" />
  <path
     fill="#fff9fd"
     d=" M 12.01 19.66 C 16.70 24.07 21.15 28.72 25.72 33.26 C 27.44 34.89 28.93 36.91 31.13 37.92 C 32.70 38.55 34.13 37.25 35.22 36.29 C 40.84 30.78 46.28 25.07 51.99 19.64 C 52.00 31.51 52.01 43.37 52.06 55.24 C 50.76 55.86 49.37 56.13 47.93 56.03 C 36.94 55.98 25.94 56.03 14.95 56.02 C 13.75 56.10 11.82 55.87 12.05 54.19 C 11.84 42.69 12.09 31.17 12.01 19.66 Z"
     id="path10" />
</svg>
