<?xml version="1.0" encoding="UTF-8" ?>
<!DOCTYPE svg PUBLIC "-//W3C//DTD SVG 1.1//EN" "http://www.w3.org/Graphics/SVG/1.1/DTD/svg11.dtd">
<svg width="64pt" height="64pt" viewBox="0 0 64 64" version="1.1" xmlns="http://www.w3.org/2000/svg">
<path fill="#fff9fd" d=" M 0.00 0.00 L 64.00 0.00 L 64.00 64.00 L 0.00 64.00 L 0.00 0.00 Z" />
<path fill="#b64e4c" d=" M 7.34 7.97 C 23.77 8.40 40.24 8.30 56.67 7.97 C 57.93 9.34 59.02 10.85 59.96 12.45 C 60.00 27.14 60.08 41.83 59.92 56.51 C 59.62 57.06 59.02 58.17 58.72 58.73 C 58.17 59.03 57.06 59.62 56.51 59.92 C 40.17 60.02 23.83 60.02 7.49 59.92 C 6.94 59.62 5.84 59.02 5.29 58.73 C 4.99 58.17 4.38 57.05 4.08 56.50 C 3.92 41.81 4.00 27.12 4.05 12.44 C 5.00 10.85 6.06 9.32 7.34 7.97 Z" />
<path fill="#fff9fd" d=" M 15.65 8.95 C 26.55 8.76 37.45 8.60 48.34 8.94 C 43.03 14.47 37.72 20.07 32.01 25.18 C 26.28 20.10 20.97 14.48 15.65 8.95 Z" />
<path fill="#fff9fd" d=" M 12.01 19.66 C 16.70 24.07 21.15 28.72 25.72 33.26 C 27.44 34.89 28.93 36.91 31.13 37.92 C 32.70 38.55 34.13 37.25 35.22 36.29 C 40.84 30.78 46.28 25.07 51.99 19.64 C 52.00 31.51 52.01 43.37 52.06 55.24 C 50.76 55.86 49.37 56.13 47.93 56.03 C 36.94 55.98 25.94 56.03 14.95 56.02 C 13.75 56.10 11.82 55.87 12.05 54.19 C 11.84 42.69 12.09 31.17 12.01 19.66 Z" />
</svg>
